<svg id="Layer_5" enable-background="new 0 0 64 64" height="512" viewBox="0 0 64 64" width="512" xmlns="http://www.w3.org/2000/svg" xmlns:xlink="http://www.w3.org/1999/xlink"><linearGradient id="SVGID_1_" gradientUnits="userSpaceOnUse" x1="32" x2="32" y1="63" y2="1"><stop offset="0" stop-color="#9f2fff"/><stop offset="1" stop-color="#0bb1d3"/></linearGradient><path d="m1 61h62v2h-62zm19-10v6h-16v-6zm-2 2h-12v2h12zm22-2v6h-16v-6zm-2 2h-12v2h12zm22-2v6h-16v-6zm-2 2h-12v2h12zm-9.63-52 14.63 12.54v5.46h-2v18h2v2h-2v6h2v2h-62v-2h2v-6h-2v-2h2v-18h-2v-5.46l14.63-12.54h2.74l13.63 11.683 13.63-11.683zm-13.667 12h3.903l8.394-7.838 8.394 7.838h3.903l-11.667-10h-1.26zm12.297-5.102-5.464 5.102h10.928zm-34 31.102v6h6v-6zm12-14h-8v12h8zm-4 20h6v-6h-6zm8 0h6v-6h-6zm8 0h6v-6h-6zm8 0h6v-6h-6zm2-20h-8v12h8zm-14-6h-2v18h2zm-2-4h-28v2h28zm-7.771-2-6.229-5.17-6.229 5.17zm-18.526 0h2.936l9.361-7.77 9.361 7.77h2.936l-11.667-10h-1.26zm.297 24h10v-14h12v14h2v-18h-24zm0 8h6v-6h-6zm54-6h-6v6h6zm0-20h-24v18h2v-14h12v14h10zm2-2v-2h-28v2zm-4 10h-6v-6h6zm-2-4h-2v2h2zm2 12h-6v-6h6zm-2-4h-2v2h2zm-42-10v6h-6v-6zm-2 2h-2v2h2zm-4 6h6v6h-6zm2 4h2v-2h-2z" fill="url(#SVGID_1_)"/></svg>